PLANETA 51 PT-BR (720p)

DUAL AUDIO: INGLÊS, PORTUGUÊS-BR


Credits: freaks


   
Video #1
     
      Codec ID : V_MPEG4/ISO/AVC
      Duration : 1h 31mn
      Bit rate : 5 366 Kbps
      Width : 1 280 pixels
      Height : 544 pixels
      Display aspect ratio : 2.35:1
      Frame rate mode : Constant
      Frame rate : 23.976 fps
      Color space : YUV
      Chroma subsampling : 4:2:0
      Bit depth : 8 bits
      Scan type : Progressive
      Bits/(Pixel*Frame) : 0.321
      Stream size : 3.32 GiB (71%)
      Title : Planeta 51 2009 Dual Audio HD 720p _EXTREME.EXE_
      Writing library : x264 core 85 r1442 781d300
      

      Language : Portuguese
      Default : Yes
      Forced : No
   
Audio #2

      ID : 2
      Format : AC-3
      Format/Info : Audio Coding 3
      Mode extension : CM (complete main)
      Format settings, Endianness : Big
      Codec ID : A_AC3
      Duration : 1h 31mn
      Bit rate mode : Constant
      Bit rate : 448 Kbps
      Channel(s) : 6 channels
      Channel positions : Front: L C R, Side: L R, LFE
      Sampling rate : 48.0 KHz
      Bit depth : 16 bits
      Compression mode : Lossy
      Delay relative to video : 20s 500ms
      Stream size : 292 MiB (6%)
      Title : AC3
      Language : Portuguese
      
   
Audio #3

      ID : 3
      Format : DTS
      Format/Info : Digital Theater Systems
      Mode : 16
      Format settings, Endianness : Big
      Codec ID : A_DTS
      Duration : 1h 31mn
      Bit rate mode : Constant
      Bit rate : 1 509 Kbps
      Channel(s) : 6 channels
      Channel positions : Front: L C R, Side: L R, LFE
      Sampling rate : 48.0 KHz
      Bit depth : 24 bits
      Compression mode : Lossy
      Stream size : 982 MiB (21%)
      Title : DTS
      Language : English
     